<svg width="1700" height="222" viewBox="0 0 1700 222" fill="none" xmlns="http://www.w3.org/2000/svg">
<rect x="1688" y="190.048" width="6" height="21" fill="#00E5FF"/>
<rect x="1682" y="169.048" width="6" height="21" fill="#00E5FF"/>
<rect x="1676" y="149.048" width="6" height="20" fill="#00E5FF"/>
<rect x="1670" y="129.048" width="6" height="20" fill="#00E5FF"/>
<rect x="1664" y="107.048" width="6" height="22" fill="#00E5FF"/>
<rect x="1658" y="88.0483" width="6" height="19" fill="#00E5FF"/>
<rect x="1652" y="67.0483" width="6" height="21" fill="#00E5FF"/>
<rect x="1646" y="45.0483" width="6" height="22" fill="#00E5FF"/>
<rect x="1640" y="26.0483" width="6" height="19" fill="#00E5FF"/>
<rect x="1634" y="5.04834" width="6" height="21" fill="#00E5FF"/>
<rect x="1694" y="211.048" width="6" height="6" fill="#00E5FF"/>
<rect width="6" height="18" transform="matrix(-1 0 0 1 12 194.048)" fill="#00E5FF"/>
<rect width="6" height="17" transform="matrix(-1 0 0 1 18 177.048)" fill="#00E5FF"/>
<rect width="6" height="17" transform="matrix(-1 0 0 1 24 160.048)" fill="#00E5FF"/>
<rect width="6" height="18" transform="matrix(-1 0 0 1 30 142.048)" fill="#00E5FF"/>
<rect width="6" height="17" transform="matrix(-1 0 0 1 36 125.048)" fill="#00E5FF"/>
<rect width="6" height="17" transform="matrix(-1 0 0 1 42 108.048)" fill="#00E5FF"/>
<rect width="6" height="18" transform="matrix(-1 0 0 1 48 90.0483)" fill="#00E5FF"/>
<rect width="6" height="16" transform="matrix(-1 0 0 1 54 74.0483)" fill="#00E5FF"/>
<rect width="6" height="17" transform="matrix(-1 0 0 1 60 57.0483)" fill="#00E5FF"/>
<rect width="6" height="17" transform="matrix(-1 0 0 1 66 40.0483)" fill="#00E5FF"/>
<rect width="6" height="18" transform="matrix(-1 0 0 1 72 22.0483)" fill="#00E5FF"/>
<rect width="6" height="17" transform="matrix(-1 0 0 1 78 5.04834)" fill="#00E5FF"/>
<rect width="6" height="5" transform="matrix(-1 0 0 1 6 212.048)" fill="#00E5FF"/>
<rect x="78" width="1556" height="5" fill="#00E5FF"/>
<rect x="6" y="217.048" width="1688" height="4.95167" fill="#00E5FF"/>
</svg>
